<svg width="80" height="36" viewBox="0 0 80 36" fill="none" xmlns="http://www.w3.org/2000/svg">
<g id="Sky-Park-LOGO 3">
<path id="Vector" d="M28.0777 10.4306H25.582C25.5512 10.4306 25.5266 10.4444 25.5051 10.4684C25.4866 10.489 25.4712 10.5199 25.4712 10.5576V16.2243C25.4712 16.4371 25.3912 16.6293 25.2681 16.7666C25.1419 16.9073 24.9727 16.9931 24.7819 16.9931H22.6893C22.5016 16.9931 22.3293 16.9039 22.2031 16.7666C22.0769 16.6259 22 16.4337 22 16.2243V0.772259C22 0.559459 22.08 0.367252 22.2031 0.229962C22.3293 0.0892389 22.5047 0 22.6924 0H24.785C24.9758 0 25.1481 0.0892389 25.2712 0.226529C25.3974 0.367252 25.4743 0.556027 25.4743 0.768827V6.43549C25.4743 6.47325 25.4866 6.50071 25.5081 6.52473C25.5266 6.54533 25.5543 6.56249 25.5851 6.56249H30.8042C30.8319 6.56249 30.8535 6.55562 30.8719 6.54189H30.8688C30.8873 6.52816 30.9027 6.50414 30.9119 6.48011C30.9519 6.33253 30.9981 6.18837 31.0473 6.05451C31.0966 5.91379 31.1489 5.7765 31.2043 5.63578L33.3738 0.446194C33.4322 0.308904 33.5184 0.199071 33.6261 0.123561C33.7369 0.0446194 33.8631 0.00343226 33.9985 0.00343226H36.3095C36.4326 0.00343226 36.5434 0.0377549 36.645 0.0995356C36.7434 0.161316 36.8296 0.250555 36.8912 0.36382C36.9558 0.477085 36.9927 0.597214 36.9989 0.72764C37.005 0.851201 36.9865 0.981627 36.9342 1.10176L34.3554 7.27297C34.1862 7.67797 34.1062 8.09328 34.1062 8.50172C34.1062 8.91016 34.1893 9.32889 34.3554 9.73047L36.9342 15.9017H36.9373C36.9865 16.0218 37.005 16.1522 36.9989 16.2758C36.9927 16.4028 36.9558 16.5263 36.8912 16.6396C36.8296 16.7529 36.7434 16.8421 36.645 16.9039C36.5434 16.9657 36.4296 17 36.3095 17H33.9985C33.8631 17 33.7369 16.9554 33.6261 16.8799C33.5184 16.8044 33.4322 16.6911 33.3738 16.5572L31.2043 11.3677C31.1489 11.2269 31.0966 11.0896 31.0473 10.9489C30.9981 10.8116 30.9519 10.6709 30.9119 10.5233C30.9027 10.4993 30.8873 10.4753 30.8688 10.4615H30.8719C30.8535 10.4478 30.8288 10.4409 30.8042 10.4409H28.0808L28.0777 10.4306Z" fill="white"/>
<path id="Vector_2" d="M15.7607 15.6646C14.9929 16.4919 13.9383 17 12.7691 17H1.63756C1.44003 17 1.25843 16.9142 1.131 16.7769C1.00037 16.6361 0.923913 16.4439 0.923913 16.231V13.9C0.923913 13.6872 1.00356 13.4915 1.131 13.3542C1.26162 13.2134 1.44003 13.1311 1.63756 13.1311H12.7691C12.9475 13.1311 13.1036 13.0555 13.2183 12.9285C13.333 12.8049 13.4031 12.6333 13.4031 12.4479C13.4031 12.3003 13.3617 12.1664 13.2916 12.0497C13.2151 11.9398 13.1132 11.8471 12.9889 11.7991H12.9826L2.93741 8.90166L2.80997 8.85016C1.96889 8.52746 1.26799 7.937 0.777361 7.18518C0.283546 6.43679 0 5.52363 0 4.55897C0 3.29907 0.4747 2.16276 1.23932 1.33542C2.00394 0.51151 3.06166 0 4.23088 0H15.3752C15.7607 0 16.0761 0.339863 16.0761 0.75525V3.12056C16.0761 3.53595 15.7575 3.87581 15.3752 3.87581H4.23088C4.05247 3.87581 3.89318 3.9479 3.78167 4.07492C3.66698 4.19851 3.5937 4.36672 3.5937 4.55897C3.5937 4.70315 3.63831 4.83704 3.7084 4.94689C3.77849 5.05674 3.88681 5.14943 4.01106 5.1975H4.01424L14.0467 8.09834L14.1773 8.14641C15.0216 8.46567 15.7288 9.05957 16.2226 9.81482C16.7165 10.5666 17 11.4832 17 12.4479C17 13.7044 16.5253 14.8441 15.7607 15.668V15.6646Z" fill="white"/>
<path id="Vector_3" d="M45.5763 22.9994V35.2276C45.5763 35.437 45.4939 35.6327 45.367 35.77C45.237 35.9107 45.0595 35.9966 44.8661 35.9966H42.7102C42.5168 35.9966 42.3361 35.9073 42.2093 35.77C42.0793 35.6292 42 35.437 42 35.2276V22.5806C42 21.5884 42.3741 20.6959 42.9702 20.0505C43.5694 19.4017 44.3969 19 45.3068 19H53.1822C53.9495 19 54.6882 19.1991 55.3508 19.563C56.0198 19.9303 56.6063 20.4624 57.0565 21.1319C57.1802 21.3069 57.288 21.4923 57.3863 21.6743C58.0013 22.8518 58.1313 24.1632 57.8777 25.3681C57.624 26.5731 56.9804 27.6751 56.0356 28.4269C55.8866 28.5436 55.7281 28.6535 55.5569 28.7599H55.5601C55.522 28.7805 55.4808 28.808 55.4396 28.8286C55.3128 28.9041 55.1542 28.9968 55.1891 29.0723L57.697 34.9015C57.7477 35.0216 57.773 35.1521 57.7635 35.2756C57.7572 35.4027 57.716 35.5263 57.6526 35.6395C57.586 35.7528 57.4972 35.8421 57.3958 35.9039C57.2911 35.9657 57.1738 36 57.0534 36H54.6723C54.5328 36 54.3997 35.9554 54.2887 35.8798C54.1777 35.8043 54.0858 35.691 54.0287 35.5537L51.2197 29.0448C51.0231 28.5848 51.0041 28.087 51.1341 27.6373C51.2673 27.191 51.5494 26.7928 51.9521 26.5388C52.006 26.501 52.1201 26.4323 52.2596 26.3465C52.8018 26.0135 53.7783 25.4162 54.0287 25.1896L54.0731 25.145C54.1017 25.1141 54.1238 25.0832 54.1492 25.0523C54.1682 25.0214 54.1904 24.9939 54.2095 24.9596L54.2285 24.9253V24.9184C54.3616 24.6987 54.4187 24.4584 54.4187 24.225C54.4187 23.9915 54.3648 23.7787 54.2697 23.583C54.1714 23.3839 54.0319 23.2157 53.8607 23.0921C53.6705 22.9513 53.439 22.8724 53.1791 22.8724H45.6872C45.6555 22.8724 45.6302 22.8861 45.608 22.9136C45.589 22.9307 45.5763 22.9651 45.5763 22.9994Z" fill="white"/>
<path id="Vector_4" d="M70.0756 29.4272H67.5826C67.5518 29.4272 67.5241 29.4409 67.5025 29.465C67.4841 29.4856 67.4687 29.5165 67.4687 29.5508V35.2209C67.4687 35.4302 67.3917 35.6259 67.2686 35.7632C67.1424 35.9039 66.9701 35.9897 66.7792 35.9897H64.6894C64.4986 35.9897 64.3262 35.9005 64.2031 35.7632C64.0769 35.6225 64 35.4302 64 35.2209V19.7688C64 19.556 64.08 19.3604 64.2031 19.2231C64.3293 19.0824 64.4986 19 64.6894 19H66.7792C66.9701 19 67.1455 19.0858 67.2686 19.2231C67.3948 19.3638 67.4687 19.556 67.4687 19.7688V25.4355C67.4687 25.4698 67.481 25.5007 67.5025 25.5247C67.521 25.5453 67.5518 25.5625 67.5826 25.5625H72.8025C72.8302 25.5625 72.8517 25.5556 72.8671 25.5419C72.8856 25.5282 72.901 25.5041 72.9071 25.4801C72.9502 25.3325 72.9933 25.1918 73.0426 25.0545C73.0918 24.9138 73.1441 24.7765 73.2026 24.6358L75.3694 19.4462H75.3724C75.4278 19.3089 75.5171 19.1991 75.6248 19.1236C75.7325 19.0412 75.8618 19.0034 75.9972 19.0034H78.3087C78.4256 19.0034 78.5395 19.0378 78.6411 19.0995C78.7426 19.1579 78.8257 19.2471 78.8904 19.3604C78.9519 19.4737 78.9889 19.5972 78.9981 19.7242C79.0042 19.8512 78.9827 19.9816 78.9335 20.1018L76.3481 26.273H76.3512C76.185 26.678 76.0988 27.0864 76.0988 27.5017C76.0988 27.917 76.185 28.3255 76.3512 28.7305H76.3481L78.9335 34.9017C78.9827 35.0218 79.0073 35.1488 78.9981 35.2758C78.9889 35.4028 78.9519 35.5264 78.8904 35.6396C78.8257 35.7529 78.7426 35.8421 78.6411 35.9039C78.5395 35.9657 78.4256 36 78.3087 36H75.9972C75.8618 36 75.7325 35.9554 75.6248 35.8799C75.5171 35.8044 75.4278 35.6911 75.3724 35.5538H75.3694L73.2026 30.3677C73.1441 30.2269 73.0918 30.0896 73.0426 29.9455C72.9964 29.8116 72.9502 29.6709 72.9071 29.5233C72.901 29.4993 72.8887 29.4753 72.8671 29.4615C72.8517 29.4478 72.8271 29.4409 72.8025 29.4409H70.0725L70.0756 29.4272Z" fill="white"/>
<path id="Vector_5" d="M27.4607 23.6286L22.5645 35.5536C22.5071 35.6944 22.4194 35.8043 22.3135 35.8798C22.2077 35.9554 22.0807 36 21.9506 36H19.6764C19.5585 36 19.4496 35.9657 19.3498 35.9039C19.2531 35.8421 19.1684 35.7528 19.1079 35.6395H19.1049C19.0444 35.5296 19.0081 35.406 19.0021 35.2755C18.993 35.1519 19.0141 35.0214 19.0625 34.9012L24.3669 21.9838C24.745 21.0705 25.3317 20.322 26.0484 19.8069C26.7621 19.285 27.6058 19 28.498 19C29.3901 19 30.2308 19.285 30.9506 19.8035C31.6673 20.322 32.254 21.0705 32.632 21.9838L37.9364 34.9012C37.9848 35.0214 38.009 35.1519 37.9969 35.2755C37.9909 35.4025 37.9546 35.5262 37.8911 35.6395C37.8306 35.7528 37.7459 35.8421 37.6491 35.9039C37.5493 35.9657 37.4405 36 37.3195 36H35.0483C34.9183 36 34.7943 35.9554 34.6854 35.8798C34.5796 35.8043 34.4919 35.691 34.4344 35.5536L29.5383 23.6286C29.4415 23.3951 29.2964 23.2028 29.1179 23.0757C28.9395 22.9487 28.7308 22.8766 28.501 22.8766C28.2712 22.8766 28.0625 22.9453 27.8871 23.0757C27.7087 23.2028 27.5635 23.3951 27.4667 23.6286H27.4607Z" fill="white"/>
<path id="Vector_6" d="M55.9335 1.09855C55.9827 0.97496 56.0073 0.84794 55.9981 0.724354C55.9919 0.597334 55.955 0.470315 55.8904 0.357027C55.8257 0.24374 55.7396 0.154483 55.6411 0.0961228C55.5426 0.0343296 55.4287 0 55.3087 0H52.9974C52.862 0 52.7328 0.0446284 52.6251 0.120153C52.5173 0.195679 52.4281 0.308966 52.3727 0.442851L49.0581 8.36955C48.9381 8.58239 48.735 8.70941 48.5011 8.70941C48.2426 8.70941 48.0179 8.54806 47.904 8.28372L44.6295 0.442851H44.6264C44.571 0.305533 44.4818 0.195679 44.3741 0.120153C44.2663 0.0446284 44.1371 0 44.0017 0H41.6904C41.5704 0 41.4596 0.0343296 41.358 0.0961228C41.2595 0.154483 41.1734 0.24374 41.1087 0.357027C41.0472 0.470315 41.0103 0.597334 41.001 0.724354C40.9949 0.84794 41.0164 0.97496 41.0657 1.09855L41.832 2.93861L44.6141 9.58825C44.8357 10.1169 45.2819 10.4362 45.8051 10.4362H47.8917C47.9594 10.4362 48.021 10.474 48.0548 10.5392C48.0856 10.5907 48.0949 10.6456 48.0856 10.7005L47.7933 11.4008C47.1654 12.8976 46.5468 14.4013 45.9159 15.9015C45.8667 16.025 45.8421 16.1521 45.8513 16.2756C45.8605 16.4027 45.8975 16.5297 45.959 16.643C46.0236 16.7563 46.1098 16.8455 46.2083 16.9039C46.3099 16.9657 46.4207 17 46.5407 17H48.8519C48.9874 17 49.1166 16.9554 49.2243 16.8798C49.332 16.8043 49.4213 16.6945 49.4767 16.5571H49.4798C51.631 11.4008 53.7792 6.25141 55.9304 1.10198L55.9335 1.09855Z" fill="white"/>
<path id="Vector_7" d="M4.69084 27.0364H12.1772C12.5164 27.0364 12.824 26.8853 13.0523 26.6483C13.2774 26.4044 13.417 26.0713 13.4233 25.7073H13.4201V25.6729H13.4233C13.4233 25.5836 13.4265 25.4737 13.4296 25.3467C13.4423 24.8899 13.4677 24.179 13.3345 23.7909C13.2299 23.4887 13.0682 23.2723 12.8811 23.1246C12.6528 22.9495 12.396 22.8705 12.1803 22.8705H4.66865C4.64328 22.8774 4.62109 22.8877 4.60523 22.9117C4.58938 22.9323 4.57352 22.9632 4.57352 22.9976V26.9127C4.57352 26.9505 4.58621 26.978 4.6084 27.002C4.62743 27.0226 4.65597 27.0398 4.69084 27.0398V27.0364ZM12.1772 30.9069H4.69084C4.65597 30.9069 4.6306 30.9206 4.6084 30.9446C4.58938 30.9653 4.57352 30.9996 4.57352 31.0339V35.2307C4.57352 35.4402 4.49425 35.636 4.36742 35.7733C4.23742 35.9141 4.05985 36 3.86326 36H1.71027C1.51367 36 1.33294 35.9107 1.2061 35.7733C1.0761 35.6325 1 35.4402 1 35.2307V22.5786C1 21.8402 1.20927 21.1396 1.58026 20.5558C1.95125 19.9719 2.47761 19.5048 3.11177 19.2404C3.30202 19.158 3.49544 19.0996 3.6952 19.0618C3.89814 19.0172 4.10107 19 4.30083 19H12.5164C14.9834 19 16.9968 21.1808 16.9968 23.8527V24.0794C17 24.1275 17 24.1756 17 24.2202C17 24.2958 17 24.3747 16.9968 24.4537V26.0576C16.9968 28.7261 14.9834 30.9103 12.5164 30.9103H12.1772V30.9069Z" fill="white"/>
<path id="Vector_8" d="M71.0323 7.75987C71.3796 6.67261 70.0183 6.80364 70.2477 6.19095C70.3067 6.02804 70.4524 5.92179 70.6385 5.86513C71.73 5.53576 73.1099 6.60886 72.2323 8.07507C71.9812 8.49652 71.5098 8.82234 71.1718 9.06671C71.0323 9.17296 70.9672 9.37837 71.0168 9.55545C71.0664 9.73253 71.2183 9.84586 71.3858 9.82815C72.8246 9.64753 73.9875 8.3159 73.9999 6.9701C74.0309 3.32936 67.5871 3.22665 66.2661 5.6243C66.1638 5.80846 66.1142 5.96783 66.1018 6.11658C66.0273 6.86739 66.5142 6.94176 66.8305 7.11884C67.1065 7.27467 67.2429 7.55446 66.9111 7.81299C66.018 8.50714 64.1947 7.91216 64.4272 6.53448C64.6226 5.38701 66.0211 5.06119 66.1111 4.51224C66.2847 3.45685 62.731 5.08244 63.0163 7.37384C63.3419 9.9769 67.0848 10.5719 69.3764 9.48108C70.1702 9.10567 70.7904 8.52485 71.0354 7.75987H71.0323Z" fill="white"/>
<path id="Vector_9" fill-rule="evenodd" clip-rule="evenodd" d="M68.3505 2.88504C65.7792 3.01188 61.7783 4.32702 60.3488 6.83378H60.3457L60.3488 6.83712C60.1632 7.15422 60.0765 7.47466 60.1662 7.76172C60.2127 7.91192 60.3241 8.01206 60.5128 7.88522C60.8006 7.67159 60.9243 7.05742 61.3111 6.84379C61.5618 6.7036 61.9392 6.74032 62.0723 7.03739C62.1404 7.19094 62.1497 7.38787 62.1342 7.57146C62.1311 7.61151 62.128 7.65157 62.128 7.69162C62.0754 9.39729 63.2605 10.6123 64.9499 11.3166C65.8782 11.7071 66.9612 11.9374 68.0782 12.0142C69.1983 12.0876 70.3494 12.0075 71.4107 11.7639C73.7283 11.2365 75.6406 9.95472 75.9159 7.89857C76.0428 6.9673 75.7086 6.08609 75.0434 5.34174C74.3379 4.55733 73.2642 3.92313 71.9522 3.55262C71.8687 3.52926 71.8006 3.46918 71.7542 3.39574C71.7078 3.32565 71.6892 3.23218 71.7016 3.13872C71.714 3.04192 71.7573 2.96181 71.8223 2.90173C71.8872 2.84499 71.9677 2.81161 72.0574 2.81495C72.5185 2.8283 72.995 2.86168 73.4746 2.91842C73.9604 2.97517 74.4431 3.05861 74.9165 3.1721C79.6259 4.29698 82.0518 9.36057 77.7972 13.0757C75.7922 14.8247 72.6206 15.8828 69.3654 15.9896C62.8768 16.2066 58.6068 12.9789 58.0622 9.54416C57.6816 7.14754 59.0925 5.24828 61.0914 3.95317C62.7314 2.89172 64.7612 2.23749 66.5218 2.0539C66.5992 2.04723 67.611 1.94042 68.2886 2.04723C69.0282 2.16406 68.8239 2.80493 68.3505 2.88504Z" fill="white"/>
</g>
</svg>
