<svg width="207" height="20" viewBox="0 0 207 20" fill="none" xmlns="http://www.w3.org/2000/svg">
<path d="M35.1015 12.276H31.7773C31.7344 12.276 31.6992 12.2953 31.6719 12.3183C31.6445 12.3453 31.6289 12.3837 31.6289 12.4221V19.0927C31.6289 19.3426 31.5234 19.5732 31.3555 19.7347C31.1875 19.9 30.9609 20 30.707 20H27.9219C27.668 20 27.4375 19.9 27.2734 19.7347H27.2695C27.1016 19.5656 27 19.3426 27 19.0927V0.907343C27 0.661284 27.1016 0.430602 27.2695 0.269126H27.2734C27.4414 0.103805 27.668 0 27.9219 0H30.707C30.9609 0 31.1914 0.103805 31.3555 0.269126C31.5234 0.434447 31.6289 0.661284 31.6289 0.907343V7.5817C31.6289 7.62015 31.6484 7.65475 31.6719 7.68166C31.6992 7.70858 31.7344 7.72395 31.7773 7.72395H38.7382C38.7734 7.72395 38.8047 7.71626 38.8242 7.69704C38.8476 7.67782 38.8672 7.65475 38.875 7.62399C38.9336 7.45098 38.9882 7.28566 39.0547 7.12803C39.1211 6.95886 39.1914 6.79354 39.2656 6.63206L42.1562 0.526724C42.2343 0.361403 42.3515 0.234529 42.5 0.142257C42.6445 0.0499848 42.8164 0 42.9921 0H46.0781C46.2343 0 46.3867 0.03845 46.5234 0.111499C46.6562 0.184548 46.7695 0.288353 46.8554 0.422917H46.8515C46.9413 0.55748 46.9882 0.699733 46.996 0.849676C47.0078 0.995773 46.9765 1.14956 46.9101 1.29181L43.4687 8.5544C43.246 9.03499 43.1367 9.51942 43.1367 10C43.1367 10.4806 43.246 10.9727 43.4687 11.4456L46.9101 18.7082H46.914C46.9804 18.8504 47.0117 19.0004 46.996 19.1542C46.9882 19.3003 46.9374 19.4464 46.8515 19.5809H46.8554C46.7695 19.7117 46.6523 19.8193 46.5234 19.8885C46.3867 19.9616 46.2382 20 46.0781 20H42.9921C42.8164 20 42.6445 19.9539 42.5 19.8577C42.3554 19.7655 42.2382 19.6386 42.1562 19.4771L39.2656 13.3718C39.1914 13.2026 39.1211 13.0373 39.0547 12.8758C38.9882 12.7182 38.9336 12.549 38.875 12.3799C38.8672 12.3452 38.8437 12.3183 38.8242 12.303C38.8007 12.2837 38.7734 12.276 38.7382 12.276H35.1015Z" fill="#B7F7F7"/>
<path d="M19.4716 18.4317C18.5276 19.4003 17.2203 20 15.7781 20H2.02283C1.77934 20 1.55458 19.9001 1.39725 19.7386C1.23618 19.5733 1.13878 19.3465 1.13878 19.0967V16.356C1.13878 16.1061 1.23618 15.8793 1.39725 15.7179C1.55833 15.5526 1.77934 15.4488 2.02283 15.4488H15.7743C15.9916 15.4488 16.1864 15.3565 16.3288 15.2105C16.4711 15.0682 16.561 14.8645 16.561 14.6454C16.561 14.4763 16.5048 14.311 16.4187 14.1841C16.3288 14.0496 16.2014 13.9458 16.0441 13.8843H16.0403L3.63361 10.4747L3.47253 10.4132C2.43864 10.0327 1.56582 9.33692 0.958972 8.45666C0.348377 7.57255 0 6.49625 0 5.36229C0 3.88237 0.584374 2.54084 1.53211 1.57217C2.47984 0.599653 3.78345 0 5.22565 0H18.9922C19.4716 0 19.8612 0.399768 19.8612 0.887948V3.67096C19.8612 4.15914 19.4754 4.55891 18.9922 4.55891H5.22565C5.00838 4.55891 4.81359 4.65116 4.67124 4.79339C4.53264 4.93946 4.44274 5.14319 4.44274 5.36229C4.44274 5.53142 4.49144 5.68903 4.58134 5.81972C4.67124 5.95426 4.79861 6.05805 4.95594 6.11186H4.96343L17.3552 9.52527L17.5162 9.58294H17.52C18.5614 9.96349 19.4304 10.6592 20.041 11.5433C20.6516 12.4274 21 13.5037 21 14.6416C21 16.1215 20.4156 17.463 19.4679 18.4317H19.4716Z" fill="#B7F7F7"/>
<path d="M164.702 4.70679V19.0925C164.702 19.3424 164.595 19.5732 164.424 19.7347C164.254 19.9 164.024 20 163.767 20H160.935C160.681 20 160.444 19.9 160.277 19.7347C160.107 19.5693 160 19.3424 160 19.0925V4.20688C160 3.04557 160.491 1.99577 161.271 1.23438C162.06 0.469143 163.145 0 164.337 0H174.675C175.681 0 176.656 0.234571 177.523 0.661412C178.399 1.0921 179.171 1.7189 179.765 2.50721C179.92 2.71486 180.062 2.9302 180.193 3.14555C180.997 4.53374 181.175 6.07575 180.839 7.49087C180.506 8.90982 179.658 10.198 178.422 11.0863C178.228 11.2286 178.018 11.3594 177.801 11.4786C177.753 11.5093 177.698 11.5362 177.646 11.5632C177.476 11.6554 177.274 11.7631 177.313 11.8477H177.317L180.609 18.7079H180.605C180.676 18.8502 180.704 19.0002 180.692 19.1502C180.684 19.2963 180.633 19.4424 180.545 19.577C180.458 19.7116 180.343 19.8154 180.209 19.8885C180.074 19.9615 179.924 19.9962 179.761 19.9962H176.636C176.454 19.9962 176.283 19.95 176.133 19.8577C175.986 19.7654 175.872 19.6347 175.792 19.4732L172.113 11.8131H172.109C171.851 11.2748 171.827 10.6826 171.998 10.1596C172.172 9.63276 172.54 9.16747 173.071 8.86753C173.142 8.82523 173.293 8.74063 173.475 8.64449C174.188 8.25226 175.468 7.54855 175.804 7.28322L175.856 7.22553C175.891 7.19092 175.927 7.15632 175.955 7.12171C175.986 7.0871 176.014 7.05249 176.034 7.01404L176.062 6.97558L176.07 6.96789C176.236 6.71025 176.311 6.42953 176.311 6.15266C176.311 5.87579 176.244 5.62584 176.117 5.39512C175.994 5.16055 175.804 4.96443 175.578 4.81061C175.329 4.6491 175.028 4.55682 174.683 4.55682H164.848C164.813 4.55682 164.777 4.57605 164.749 4.59912H164.745C164.717 4.62604 164.706 4.66064 164.706 4.70294L164.702 4.70679Z" fill="#B7F7F7"/>
<path d="M195.103 12.2784H191.78C191.741 12.2784 191.705 12.2899 191.674 12.3169H191.678C191.647 12.3476 191.635 12.3822 191.635 12.4207V19.0925C191.635 19.3424 191.53 19.5732 191.362 19.7347C191.194 19.9 190.967 20 190.714 20H187.922C187.668 20 187.437 19.9 187.273 19.7347C187.105 19.5693 187 19.3424 187 19.0925V0.907518C187 0.657566 187.105 0.426842 187.273 0.265335C187.441 0.0999817 187.668 0 187.922 0H190.714C190.967 0 191.198 0.0999817 191.362 0.265335C191.53 0.430687 191.635 0.657566 191.635 0.907518V7.57932C191.635 7.61777 191.647 7.65237 191.678 7.68314H191.674C191.705 7.71006 191.741 7.72159 191.78 7.72159H198.738C198.773 7.72159 198.805 7.7139 198.824 7.69852C198.852 7.67545 198.867 7.65622 198.875 7.62161C198.934 7.44857 198.992 7.28322 199.055 7.12555C199.121 6.9602 199.195 6.79869 199.269 6.63334L202.159 0.522977C202.237 0.361469 202.35 0.230725 202.499 0.138435C202.647 0.0461452 202.815 0 202.995 0H206.076C206.232 0 206.388 0.0384537 206.521 0.107671C206.658 0.180734 206.771 0.284559 206.853 0.419149C206.939 0.553738 206.99 0.699864 206.997 0.84599C207.005 0.995961 206.982 1.14978 206.911 1.28822L203.471 8.5522C203.249 9.03288 203.135 9.5174 203.135 10.0019C203.135 10.4864 203.249 10.971 203.471 11.4478L206.911 18.7118C206.982 18.8541 207.009 19.0002 206.997 19.154C206.99 19.3001 206.939 19.4463 206.853 19.5809C206.771 19.7154 206.654 19.8193 206.521 19.8923C206.388 19.9654 206.236 20 206.076 20H202.995C202.815 20 202.647 19.9539 202.499 19.8616C202.354 19.7693 202.241 19.6385 202.159 19.477L199.269 13.3705C199.195 13.2052 199.121 13.0436 199.055 12.8744C198.992 12.7129 198.934 12.5514 198.875 12.3784C198.867 12.3476 198.848 12.3207 198.824 12.3053C198.801 12.2861 198.773 12.2784 198.738 12.2784H195.103Z" fill="#B7F7F7"/>
<path d="M140.579 5.44511L133.878 19.477C133.8 19.6385 133.685 19.7693 133.536 19.8616C133.386 19.9539 133.216 20 133.035 20H129.927C129.769 20 129.612 19.9654 129.482 19.8923C129.344 19.8193 129.234 19.7154 129.147 19.5809C129.06 19.4463 129.009 19.304 129.001 19.154C128.993 19.0079 129.021 18.8579 129.088 18.7118H129.084L136.344 3.51087H136.348C136.86 2.43415 137.668 1.55355 138.645 0.945975C139.622 0.338399 140.78 0 141.994 0C143.207 0 144.369 0.338399 145.35 0.945975C146.331 1.55355 147.134 2.4303 147.651 3.51087L154.911 18.7118C154.978 18.8541 155.009 19.004 154.998 19.154C154.986 19.3001 154.935 19.4463 154.852 19.5809C154.765 19.7154 154.647 19.8193 154.517 19.8923C154.379 19.9654 154.229 20 154.072 20H150.964C150.782 20 150.609 19.9539 150.463 19.8616C150.318 19.7693 150.199 19.6385 150.121 19.477H150.117L143.416 5.44511H143.42C143.282 5.16824 143.085 4.94521 142.84 4.79139C142.6 4.64142 142.309 4.55682 141.994 4.55682C141.678 4.55682 141.395 4.63757 141.154 4.79139C140.91 4.94136 140.713 5.16824 140.579 5.44511Z" fill="#B7F7F7"/>
<path d="M70.9115 1.29156C70.9818 1.14934 71.0091 0.999426 70.9974 0.849513C70.9896 0.699599 70.9388 0.557373 70.853 0.422835C70.7632 0.288298 70.6501 0.184512 70.5213 0.111477C70.3886 0.0384426 70.2364 0 70.0803 0H67.0013C66.8218 0 66.6501 0.0499752 66.5057 0.14223C66.3613 0.234484 66.2442 0.361334 66.1662 0.526623C64.7106 3.60177 63.2432 6.67307 61.7876 9.74822C61.6432 10.0634 61.3389 10.2479 60.9954 10.2479C60.652 10.2479 60.3476 10.0634 60.2032 9.74822L55.8364 0.526623C55.7584 0.361334 55.6452 0.234484 55.4969 0.14223C55.3486 0.0499752 55.1808 0 55.0013 0H51.9223C51.7584 0 51.6101 0.0384426 51.4735 0.111477C51.3408 0.184512 51.2315 0.288298 51.1457 0.422835C51.0598 0.557373 51.0091 0.699599 51.0013 0.849513C50.9935 0.995582 51.0208 1.14549 51.0871 1.29156H51.0832L52.1096 3.4557L55.8091 11.2781C56.1018 11.9047 56.7028 12.2775 57.4013 12.2775H60.1759C60.2696 12.2775 60.3515 12.3198 60.3984 12.3967C60.4452 12.4736 60.4569 12.5658 60.414 12.6466L57.5418 18.7123H57.5457C57.4754 18.8545 57.4481 19.0044 57.4598 19.1543C57.4676 19.3004 57.5184 19.4465 57.6042 19.581C57.6901 19.7156 57.8032 19.8193 57.9359 19.8924C58.0686 19.9616 58.2169 20 58.3769 20H61.4559C61.6354 20 61.8032 19.9539 61.9515 19.8578C62.0959 19.7655 62.2091 19.6387 62.291 19.4772C65.1593 13.4153 68.0393 7.3573 70.9076 1.29541L70.9115 1.29156Z" fill="#B7F7F7"/>
<path d="M111.614 9.45972H120.975C121.397 9.45972 121.79 9.28283 122.069 8.99827C122.348 8.71755 122.525 8.32532 122.529 7.89079V7.85618C122.529 7.74851 122.533 7.62161 122.537 7.47164C122.559 6.93713 122.586 6.09883 122.42 5.64122C122.288 5.28744 122.084 5.03365 121.85 4.8606C121.567 4.65295 121.246 4.56066 120.971 4.56066H111.584C111.554 4.56451 111.524 4.58373 111.505 4.60681C111.482 4.63372 111.467 4.66834 111.467 4.70679V9.3136C111.467 9.35589 111.482 9.39051 111.509 9.41742C111.535 9.44434 111.573 9.45972 111.61 9.45972H111.614ZM120.975 14.0127H111.614C111.576 14.0127 111.539 14.0281 111.512 14.055C111.486 14.0819 111.471 14.1165 111.471 14.1588V19.0925C111.471 19.3424 111.373 19.5732 111.211 19.7347C111.048 19.9 110.826 20 110.58 20H107.89C107.645 20 107.423 19.9 107.264 19.7347C107.102 19.5693 107 19.3424 107 19.0925V4.20688C107 3.34167 107.264 2.51874 107.724 1.83042C108.188 1.14209 108.849 0.596041 109.645 0.284563C109.879 0.188427 110.124 0.11536 110.369 0.0692147C110.622 0.0230697 110.879 0 111.131 0H121.401C124.48 0 127 2.56489 127 5.70659V8.30225C127 11.444 124.48 14.0088 121.401 14.0088H120.975V14.0127Z" fill="#B7F7F7"/>
<path d="M90.9546 9.38934C91.4296 8.12268 89.57 8.2761 89.8839 7.56016C89.9644 7.37134 90.1657 7.24546 90.4193 7.17859C91.9086 6.79309 93.7883 8.04401 92.5928 9.75517C92.2507 10.2469 91.6067 10.6245 91.1478 10.9117C90.9587 11.0336 90.8661 11.2736 90.9345 11.4821C91.0029 11.6906 91.2122 11.8243 91.4376 11.8007C93.4019 11.5883 94.9878 10.0384 94.9999 8.46492C95.0401 4.21651 86.2533 4.0985 84.4541 6.89536C84.3132 7.11172 84.2448 7.2966 84.2287 7.46969C84.128 8.34297 84.7882 8.43344 85.2229 8.64193C85.5972 8.82288 85.7824 9.14938 85.3315 9.45227C84.116 10.2626 81.6284 9.56636 81.9424 7.95747C82.2081 6.62001 84.116 6.23844 84.2407 5.59724C84.4742 4.36206 79.632 6.26597 80.0224 8.93696C80.4652 11.9738 85.5731 12.6661 88.6965 11.3955C89.7793 10.9589 90.6246 10.2823 90.9587 9.38934H90.9546Z" fill="#B7F7F7"/>
<path fill-rule="evenodd" clip-rule="evenodd" d="M85.6479 3.07712C82.2583 3.2314 76.9817 4.82823 75.0986 7.87145H75.0947L75.0986 7.87532C74.854 8.26102 74.7414 8.65059 74.8579 8.99772C74.92 9.17901 75.0675 9.30243 75.316 9.14815C75.6965 8.88972 75.8557 8.14145 76.3682 7.88303C76.6983 7.71332 77.1952 7.75574 77.37 8.11831C77.4632 8.30345 77.4709 8.54258 77.4515 8.77015C77.4476 8.81644 77.4437 8.86658 77.4437 8.91672C77.3739 10.988 78.9347 12.4614 81.1634 13.3138C82.3903 13.7843 83.8153 14.0659 85.2868 14.1585C86.7623 14.251 88.2804 14.1508 89.6782 13.8538C92.73 13.2135 95.2538 11.6552 95.6188 9.15972C95.7857 8.0296 95.3431 6.95733 94.4656 6.05478C93.5376 5.10208 92.1204 4.33452 90.3926 3.88325C90.2839 3.85239 90.1907 3.78297 90.1325 3.69426C90.0704 3.6094 90.0471 3.49368 90.0626 3.38183C90.082 3.26612 90.1364 3.16584 90.2179 3.09641C90.3033 3.02698 90.4082 2.98841 90.5285 2.99227C91.1342 3.01155 91.7632 3.05012 92.3961 3.11955C93.0368 3.18898 93.6735 3.28926 94.2986 3.42812C100.507 4.79352 103.703 10.9417 98.0998 15.4506C95.4557 17.5758 91.2779 18.8564 86.9836 18.9875C78.43 19.2498 72.8 15.3349 72.0817 11.1615C71.5808 8.25331 73.4407 5.94678 76.0731 4.3731C78.2319 3.08484 80.9149 2.29028 83.2329 2.06657C83.3377 2.055 84.6656 1.92772 85.5625 2.05886C86.5371 2.20157 86.2692 2.97684 85.6441 3.07712H85.6479Z" fill="#B7F7F7"/>
</svg>
