<svg width="128" height="89" viewBox="0 0 128 89" fill="none" xmlns="http://www.w3.org/2000/svg">
<g id="Group 2">
<path id="Vector" d="M104.99 76.57H86.2901C86.2101 76.57 86.14 76.61 86.08 76.65C86.03 76.7 86.0001 76.77 86.0001 76.86V86.54C86.0001 87.03 85.7901 87.47 85.4801 87.8C85.1501 88.12 84.7101 88.32 84.2201 88.32H78.8401C78.3601 88.32 77.9101 88.11 77.5901 87.8C77.2601 87.47 77.0701 87.03 77.0701 86.54V57.36C77.0701 55.66 77.5901 54.04 78.5101 52.69C79.4401 51.34 80.7601 50.27 82.3401 49.66C82.8201 49.47 83.3 49.33 83.8 49.25C84.31 49.15 84.8201 49.1 85.3201 49.1H105.85C112 49.1 117.04 54.14 117.04 60.29V65.39C117.04 71.54 112 76.58 105.85 76.58H105L104.99 76.57ZM86.2901 67.64H104.99C105.84 67.64 106.61 67.3 107.17 66.73C107.73 66.18 108.09 65.41 108.09 64.56V64.49C108.09 64.28 108.1 64.04 108.12 63.73C108.15 62.69 108.22 61.04 107.87 60.15C107.61 59.45 107.2 58.95 106.73 58.61C106.17 58.2 105.54 58.02 104.99 58.02H86.2301C86.1601 58.03 86.1101 58.08 86.0701 58.12C86.0301 58.17 86.0001 58.24 86.0001 58.31V67.35C86.0001 67.43 86.03 67.5 86.08 67.56C86.13 67.62 86.2001 67.64 86.2901 67.64Z" fill="#5A15A6"/>
<path id="Vector_2" d="M73.36 36.5699C71.45 38.4799 68.83 39.6599 65.92 39.6599H38.24C37.76 39.6599 37.31 39.4499 36.99 39.1399C36.66 38.8099 36.47 38.3699 36.47 37.8799V32.4999C36.47 32.0099 36.66 31.5699 36.99 31.2399C37.31 30.9199 37.76 30.7199 38.24 30.7199H65.92C66.36 30.7199 66.76 30.5599 67.03 30.2699C67.32 29.9799 67.5 29.5799 67.5 29.1599C67.5 28.8199 67.4 28.4999 67.21 28.2399C67.03 27.9899 66.77 27.7899 66.47 27.6599H66.46L41.48 20.9699L41.16 20.8599C39.07 20.1199 37.31 18.7499 36.09 17.0199C34.87 15.2899 34.17 13.1799 34.17 10.9599C34.17 8.04994 35.35 5.42994 37.25 3.51994C39.16 1.60994 41.78 0.439941 44.69 0.439941H72.37C72.85 0.439941 73.3 0.629942 73.62 0.959942C73.95 1.27994 74.14 1.71994 74.14 2.20994V7.58994C74.14 8.07994 73.95 8.51994 73.62 8.84994C73.3 9.16994 72.85 9.36994 72.37 9.36994H44.69C44.25 9.36994 43.85 9.52994 43.58 9.81994C43.29 10.1099 43.11 10.5099 43.11 10.9499C43.11 11.2799 43.21 11.5799 43.4 11.8399C43.58 12.0999 43.84 12.3099 44.14 12.4199H44.15L69.1 19.1099L69.42 19.2199H69.43C71.53 19.9599 73.27 21.3299 74.51 23.0699C75.73 24.8099 76.43 26.9299 76.43 29.1499C76.43 32.0499 75.25 34.6799 73.35 36.5799L73.36 36.5699Z" fill="#5A15A6"/>
<path id="Vector_3" fill-rule="evenodd" clip-rule="evenodd" d="M104.07 40.7501C104.18 40.2601 104.28 39.7501 104.36 39.2301C105.07 34.2601 103.16 29.5201 99.31 25.5501C95.25 21.3401 89.04 17.9701 81.49 15.9801C81 15.8401 80.6 15.5401 80.34 15.1401C80.08 14.7401 79.96 14.2601 80.04 13.7501C80.11 13.2401 80.37 12.8001 80.73 12.5001C81.1 12.2001 81.57 12.0201 82.09 12.0301C84.74 12.1101 87.49 12.2901 90.26 12.5901C93.06 12.9101 95.86 13.3301 98.58 13.9401C121.04 18.9101 134.5 38.2601 124.68 56.0401C124.5 56.3601 124.16 56.5201 123.8 56.4701C123.46 56.4001 123.2 56.1301 123.14 55.7701C122.07 48.5201 116.37 42.9401 108.61 42.9401H105.81C105.25 42.9401 104.77 42.7101 104.42 42.2501C104.06 41.8101 103.94 41.2901 104.08 40.7401L104.07 40.7501ZM26.31 22.5401C21.33 25.5501 17.12 29.2101 14.46 33.5401C13.4 35.2601 12.9 36.9901 13.4 38.5001C13.67 39.3101 14.33 39.8501 15.42 39.1701C17.09 38.0301 17.78 34.7501 20.02 33.6001C21.48 32.8501 23.65 33.0501 24.41 34.6401C24.81 35.4501 24.85 36.4901 24.77 37.5001C24.76 37.7101 24.74 37.9301 24.74 38.1301C24.44 47.2701 31.28 53.7801 41.04 57.5501C45.43 59.2401 50.42 60.3801 55.61 60.9701L58.04 55.7701C58.07 55.7201 58.09 55.6601 58.12 55.6101L60.94 49.5801C61.09 49.2501 61.32 49.0001 61.6 48.8101C61.89 48.6301 62.22 48.5401 62.58 48.5401H68.62C68.94 48.5401 69.22 48.6101 69.5 48.7601H69.49C69.75 48.9001 69.98 49.1201 70.15 49.3801C70.31 49.6401 70.41 49.9301 70.44 50.2301C70.45 50.5201 70.4 50.8201 70.26 51.1101L63.37 65.9101L56.19 81.3201H56.18C56.17 81.3701 56.14 81.4301 56.1 81.4801L53.3 87.5101H53.29C53.15 87.8401 52.92 88.0901 52.63 88.2801C52.34 88.4601 52.01 88.5501 51.66 88.5501H45.62C45.32 88.5501 45.02 88.4801 44.75 88.3301C44.49 88.1901 44.27 87.9701 44.09 87.7101C43.93 87.4501 43.83 87.1601 43.82 86.8601C43.79 86.5701 43.85 86.2701 43.98 85.9801L46.18 81.2701C20.3 76.9501 3.82999 62.8701 1.28999 48.0501C-1.21001 33.5201 9.74998 23.0401 23.16 16.4101C23.71 16.1401 24.27 16.0901 24.86 16.3001C25.44 16.5101 25.86 16.8901 26.12 17.4501L27.18 19.7401C27.66 20.7601 27.29 21.9601 26.33 22.5401H26.31Z" fill="#5A15A6"/>
</g>
</svg>
